HIERARCHY
ROOT root
{
	OFFSET	0	13.1	24.9
	CHANNELS 6  Xposition Yposition Zposition Xrotation Yrotation Zrotation
	JOINT spine_1
	{
		OFFSET	0	9.99999	0
		CHANNELS 3  Xrotation Yrotation Zrotation
		JOINT spine_2
		{
			OFFSET	0	112	-10
			CHANNELS 3  Xrotation Yrotation Zrotation
			JOINT spine_3
			{
				OFFSET	0	206.5	19.3
				CHANNELS 3  Xrotation Yrotation Zrotation
				JOINT spine_4
				{
					OFFSET	0	110.4	14.6
					CHANNELS 3  Xrotation Yrotation Zrotation
					JOINT neck_1
					{
						OFFSET	0	71.8	-50.3
						CHANNELS 3  Xrotation Yrotation Zrotation
						JOINT neck_2
						{
							OFFSET	0	86.2	-25.8
							CHANNELS 3  Xrotation Yrotation Zrotation
							JOINT head_ee
							{
								OFFSET	0	179.8	-8.7
								CHANNELS 3  Xrotation Yrotation Zrotation
								End Site
								{
									OFFSET	1	0	0
								}
							}
						}
					}
					JOINT left_clavicle
					{
						OFFSET	-43.2	22.4	-70.8
						CHANNELS 3  Xrotation Yrotation Zrotation
						JOINT left_shoulder
						{
							OFFSET	-93.9	-5.79999	48.7
							CHANNELS 3  Xrotation Yrotation Zrotation
							JOINT left_elbow
							{
								OFFSET	-291.4	-30.8	15.2
								CHANNELS 3  Xrotation Yrotation Zrotation
								JOINT left_lowarm_twist
								{
									OFFSET	-110.7	-3.89999	13.6
									CHANNELS 3  Xrotation Yrotation Zrotation
									JOINT left_hand
									{
										OFFSET	-110.7	-3.89999	13.6
										CHANNELS 3  Xrotation Yrotation Zrotation
										JOINT left_ee
										{
											OFFSET	-80.8	-5.10001	12.1
											CHANNELS 3  Xrotation Yrotation Zrotation
											End Site
											{
												OFFSET	1	0	0
											}
										}
									}
								}
							}
						}
					}
					JOINT right_clavicle
					{
						OFFSET	43.2	22.4	-70.8
						CHANNELS 3  Xrotation Yrotation Zrotation
						JOINT right_shoulder
						{
							OFFSET	93.9	-5.79999	48.7
							CHANNELS 3  Xrotation Yrotation Zrotation
							JOINT right_elbow
							{
								OFFSET	291.4	-30.8	15.2
								CHANNELS 3  Xrotation Yrotation Zrotation
								JOINT right_lowarm_twist
								{
									OFFSET	110.7	-3.89999	13.6
									CHANNELS 3  Xrotation Yrotation Zrotation
									JOINT right_hand
									{
										OFFSET	110.7	-3.89999	13.6
										CHANNELS 3  Xrotation Yrotation Zrotation
										JOINT right_ee
										{
											OFFSET	80.8	-5.10001	12.1
											CHANNELS 3  Xrotation Yrotation Zrotation
											End Site
											{
												OFFSET	1	0	0
											}
										}
									}
								}
							}
						}
					}
				}
			}
		}
	}
	JOINT left_hip
	{
		OFFSET	-82.8	-127.5	0.300001
		CHANNELS 3  Xrotation Yrotation Zrotation
		JOINT left_knee
		{
			OFFSET	-28.2	-396.7	2.2
			CHANNELS 3  Xrotation Yrotation Zrotation
			JOINT left_ankle
			{
				OFFSET	-11.7	-411.3	35.4
				CHANNELS 3  Xrotation Yrotation Zrotation
				JOINT left_toes
				{
					OFFSET	0	-60	-88.6
					CHANNELS 3  Xrotation Yrotation Zrotation
					JOINT left_foot_ee
					{
						OFFSET	-22.5	-16.5	-42.2
						CHANNELS 3  Xrotation Yrotation Zrotation
						End Site
						{
							OFFSET	1	0	0
						}
					}
				}
			}
		}
	}
	JOINT right_hip
	{
		OFFSET	82.8	-127.5	0.300001
		CHANNELS 3  Xrotation Yrotation Zrotation
		JOINT right_knee
		{
			OFFSET	28.2	-396.7	2.2
			CHANNELS 3  Xrotation Yrotation Zrotation
			JOINT right_ankle
			{
				OFFSET	11.7	-411.3	35.4
				CHANNELS 3  Xrotation Yrotation Zrotation
				JOINT right_toes
				{
					OFFSET	0	-60	-88.6
					CHANNELS 3  Xrotation Yrotation Zrotation
					JOINT right_foot_ee
					{
						OFFSET	22.5	-16.5	-42.2
						CHANNELS 3  Xrotation Yrotation Zrotation
						End Site
						{
							OFFSET	1	0	0
						}
					}
				}
			}
		}
	}
}
MOTION
Frames: 9
Frame Time: 0.02
989.187 744.116 -1578.07 -11.9478 45.8776 13.5279 4.31672 0.0467429 1.07361 4.31736 -0.0216643 1.07441 4.31652 -0.167597 1.06148 4.31495 0.0021364 1.07462 -8.83614 2.35531 -5.67793 -8.74957 8.35438 -5.05547 -0.0 0.0 -0.0 1.99721 5.78956 4.31417 5.48668 -5.26009 50.4211 1.92107 -43.576 0.767969 1.1641 0.0395589 -0.143412 0.326993 -12.7911 -3.23602 -0.0 0.0 -0.0 8.09356 7.62453 -15.7714 -22.1599 15.8012 -70.6814 0.651667 17.891 -0.10258 10.9366 -0.255095 1.37165 0.296637 -0.323022 -2.11578 0.0 0.0 0.0 11.2667 2.94436 -3.88555 0.152002 -0.0062887 -0.0224783 35.8466 20.0202 -4.62716 -13.2334 0.0 0.0 -0.0 0.0 -0.0 40.1365 44.0526 -18.8588 -23.2888 -0.242108 -3.54111 8.68455 -24.0541 1.29038 1.17502 -0.0 -0.0 0.0 0.0 0.0 
988.465 746.172 -1581.61 -12.5905 46.7375 13.9768 4.2721 0.0600316 1.13779 4.27282 -0.0124861 1.13931 4.2721 -0.168207 1.12689 4.27033 0.0118643 1.13931 -8.83746 1.70611 -6.09243 -8.73487 7.42777 -5.61369 -0.0 0.0 -0.0 2.01646 5.83599 4.3527 4.8506 -5.71033 51.0838 1.87734 -42.9178 0.738004 0.857332 0.0294174 -0.105543 0.358887 -10.3774 -1.98742 -0.0 0.0 -0.0 8.16053 7.87356 -15.9083 -21.0164 17.0649 -71.2002 0.66086 18.127 -0.105422 11.0351 -0.256195 1.38418 0.301465 -0.355016 -2.16132 0.0 0.0 0.0 12.0723 1.78634 -4.4386 1.75731 -0.0763438 -0.258842 35.6751 20.0713 -4.61088 -13.3903 0.0 0.0 -0.0 0.0 -0.0 40.1137 44.0584 -18.8833 -23.6937 -0.233528 -3.60265 8.41036 -23.9557 1.25005 0.460895 -0.0 -0.0 0.0 0.0 0.0 
983.593 748.783 -1581.92 -12.8794 47.666 14.1648 4.31933 0.0547717 1.31436 4.32029 -0.0289679 1.31518 4.31898 -0.207539 1.29903 4.31663 0.000204345 1.3155 -9.27803 0.950991 -5.92074 -9.18166 5.85794 -5.58846 -0.0 0.0 -0.0 2.09309 5.6073 4.47471 3.62448 -6.49928 52.2189 1.85603 -42.592 0.723542 0.044792 0.00157615 -0.00550335 0.463565 -9.41398 -0.868931 -0.0 0.0 -0.0 8.39782 9.3064 -16.3822 -20.2649 17.5248 -70.7868 0.634404 17.4462 -0.0973404 10.7306 -0.252724 1.34544 0.426611 -0.719762 -3.14803 0.0 0.0 0.0 13.1607 0.859639 -5.64337 8.13584 -0.419415 -1.17637 35.4871 20.0972 -4.59233 -13.5781 0.0 0.0 -0.0 0.0 -0.0 38.8643 44.5092 -17.927 -23.1767 -0.244406 -3.52406 7.7792 -24.0659 1.15904 0.281472 -0.0 -0.0 0.0 0.0 0.0 
979.176 747.239 -1583.82 -13.3748 48.0 14.3167 4.32782 0.177177 1.33684 4.32881 0.0917588 1.34541 4.3303 -0.0917471 1.34541 4.3278 0.121867 1.34301 -8.68331 -0.828971 -5.51746 -8.5963 2.29654 -5.62809 -0.0 0.0 -0.0 2.30235 5.97959 4.88223 2.45252 -6.96013 53.6573 1.80497 -41.7969 0.689246 -0.739315 -0.0266355 0.0906578 0.441303 -7.68678 -0.283103 -0.0 0.0 -0.0 8.39326 9.48632 -16.3681 -19.92 17.9842 -70.9012 0.671629 18.4026 -0.108797 10.3575 -0.24819 1.298 0.442211 -0.415874 -3.12657 0.0 0.0 0.0 13.8229 0.0457401 -5.3778 7.71492 -0.393637 -1.11702 39.9219 19.9097 -5.0192 -11.9011 0.0 0.0 -0.0 0.0 -0.0 38.6741 45.1288 -17.6485 -23.3031 -0.241812 -3.54329 7.12977 -23.3741 1.06068 0.835573 -0.0 -0.0 0.0 0.0 0.0 
977.009 745.701 -1590.01 -14.1276 48.7958 14.8093 4.32661 0.224341 1.32228 4.32757 0.139754 1.33387 4.33018 -0.0426197 1.34049 4.32771 0.169602 1.33041 -8.43149 -2.32221 -5.53994 -8.34566 -0.456228 -5.98892 -0.0 0.0 -0.0 2.26894 6.06943 4.82799 1.54895 -7.20284 54.6183 1.77618 -41.3397 0.670138 -1.35855 -0.0498444 0.166325 0.535434 -7.51485 0.425485 -0.0 0.0 -0.0 8.43914 9.55435 -16.4646 -20.0662 18.2808 -70.6536 0.715489 19.516 -0.123048 9.82245 -0.241149 1.23002 0.50923 1.02992 -2.9759 0.0 0.0 0.0 13.8465 -0.202754 -5.27763 7.48906 -0.379985 -1.0851 41.9542 22.9519 -5.28582 -10.6652 0.0 0.0 -0.0 0.0 -0.0 38.7354 45.3583 -17.4602 -23.5207 -0.237247 -3.57636 6.65367 -22.9566 0.989252 1.21166 -0.0 -0.0 0.0 0.0 0.0 
972.241 746.216 -1593.15 -14.0234 49.9727 14.1454 4.28541 0.18064 1.40695 4.2865 0.0907549 1.41559 4.28802 -0.103317 1.41473 4.28525 0.121387 1.41329 -8.40545 -2.72623 -5.0674 -8.33495 -1.54134 -5.61167 -0.0 0.0 -0.0 2.41434 6.26924 5.10512 -0.162049 -7.66657 55.7344 1.70004 -40.0991 0.620469 -3.14211 -0.121252 0.382833 0.9359 -6.13846 3.71341 -0.0 0.0 -0.0 8.32855 9.1209 -16.2387 -18.4745 18.628 -71.2804 0.689211 18.8507 -0.114413 9.92599 -0.242561 1.24317 0.144137 -1.29975 -1.50601 0.0 0.0 0.0 12.6432 -0.592553 -3.79696 7.0367 -0.353023 -1.02101 41.5374 23.962 -5.27908 -9.95973 0.0 0.0 -0.0 0.0 -0.0 38.0328 46.9695 -16.9873 -23.8381 -0.230363 -3.62458 5.83013 -22.9743 0.868878 2.20297 -0.0 -0.0 0.0 0.0 0.0 
968.753 752.472 -1598.76 -15.5197 51.0203 15.4624 4.22524 0.254572 1.4411 4.22638 0.162365 1.45438 4.22977 -0.0391373 1.46289 4.22684 0.192365 1.45072 -9.94493 -4.30542 -7.19821 -9.80483 -3.22209 -8.07791 -0.0 0.0 -0.0 2.33057 6.34142 4.95861 -1.1485 -9.60872 56.9366 1.54543 -37.4337 0.523634 -1.75638 -0.0651866 0.214806 1.11792 -5.62383 5.16176 -0.0 0.0 -0.0 8.31627 8.59008 -16.2244 -17.5746 19.9302 -71.2746 0.712522 19.4411 -0.122058 8.40742 -0.219472 1.05058 0.111897 0.816033 -0.404446 0.0 0.0 0.0 13.0149 -0.942194 -4.02173 7.54004 -0.383055 -1.09231 41.8901 23.8721 -5.30851 -6.96407 0.0 0.0 -0.0 0.0 -0.0 37.7233 47.5165 -16.5581 -23.2876 -0.242132 -3.54092 5.33208 -23.4964 0.797686 2.17102 -0.0 -0.0 0.0 0.0 0.0 
963.489 754.611 -1601.01 -15.8661 52.5989 15.643 4.17392 0.28699 1.55939 4.17525 0.187193 1.57449 4.17956 -0.0324416 1.58524 4.17612 0.218293 1.57048 -9.86606 -5.9763 -8.27918 -9.68754 -5.62025 -9.53319 -0.0 0.0 -0.0 2.2093 6.66599 4.76275 -2.77269 -11.2645 58.0858 1.38495 -34.4508 0.429406 -2.30175 -0.086766 0.281094 1.61951 -5.43648 8.64798 -0.0 0.0 -0.0 8.22032 7.43588 -16.0427 -16.8981 20.7976 -70.7834 0.72922 19.8615 -0.127674 6.93874 -0.192291 0.864941 -0.151394 1.93064 1.83136 0.0 0.0 0.0 13.1066 -1.08073 -3.08482 7.69026 -0.392139 -1.11354 37.8246 26.4667 -5.00124 -4.83939 0.0 0.0 -0.0 0.0 -0.0 36.857 49.1428 -16.1438 -23.7226 -0.232899 -3.60704 3.84221 -24.1215 0.578807 2.82728 -0.0 -0.0 0.0 0.0 0.0 
957.552 755.906 -1603.65 -16.0791 53.5619 15.4368 4.11147 0.276569 1.67302 4.11301 0.169565 1.68723 4.11706 -0.0673581 1.69438 4.11311 0.201045 1.68377 -9.71638 -7.53796 -8.92326 -9.51832 -8.09474 -10.5279 -0.0 0.0 -0.0 2.10835 6.95212 4.60205 -4.62885 -12.9509 59.3174 1.2793 -32.3621 0.371227 -2.66257 -0.10139 0.324838 1.94359 -5.26937 10.9357 -0.0 0.0 -0.0 8.0817 6.27542 -15.7676 -16.4096 21.4959 -70.499 0.74711 20.3093 -0.133818 5.29176 -0.15616 0.657663 -0.339897 2.6575 3.40851 0.0 0.0 0.0 12.5777 -1.00867 -2.12236 7.2555 -0.366001 -1.05204 33.7424 27.5775 -4.60336 -3.3746 0.0 0.0 -0.0 0.0 -0.0 36.094 49.8715 -15.5825 -24.0551 -0.225502 -3.65753 2.63836 -24.8107 0.400037 3.33169 -0.0 -0.0 0.0 0.0 0.0 
